<?xml version="1.0" encoding="utf-8"?>
<!-- Generator: Adobe Illustrator 22.0.1, SVG Export Plug-In . SVG Version: 6.00 Build 0)  -->
<svg version="1.1" id="Layer_1" xmlns="http://www.w3.org/2000/svg" xmlns:xlink="http://www.w3.org/1999/xlink" x="0px" y="0px"
	 viewBox="0 0 235.3 50" style="enable-background:new 0 0 235.3 50;" xml:space="preserve">
<style type="text/css">
	.st0{fill:#FFFFFF;}
	.st1{fill:#F2F2F3;}
</style>
<title>Horizontal White</title>
<g>
	<path class="st0" d="M16.8,3.7c-4.2,3.6-6.2,9.2-5.2,14.7c0.6,3.8,2.5,7.3,5.6,9.8c3.1,2.4,7,3.6,11,3.2c4.6,0,8.6,3.7,8.8,8.3l0,0
		c0.4,4.2,3.2,7.7,7.3,8.9c4.8,1.3,8.6-1.8,8.8-2c4.2-3.5,4.6-9.7,1.2-13.8c-1.4-1.7-3.2-2.7-5.4-3.2l0,0c-4.5-1.1-7.4-5.5-6.6-10
		l0,0c0.2-1.1,1.5-8.3-3.2-13.9C34-0.3,23.8-2.2,16.8,3.7z"/>
	<circle class="st0" cx="8.8" cy="41.1" r="8.8"/>
	<path class="st1" d="M49,48.4c-4.1-1.2-6.9-4.8-7.3-8.9l0,0c-0.2-4.6-4.1-8.3-8.8-8.3c-3.9,0.4-7.9-0.8-11-3.2c-3-2.4-5-6-5.6-9.8
		c-1-5.5,1.1-11,5.2-14.7c2-1.7,4.3-2.9,6.9-3.3C24.3-0.4,20,0.8,16.8,3.6c-4.2,3.6-6.2,9.2-5.2,14.7c0.6,3.8,2.5,7.3,5.6,9.8
		c3.1,2.4,7,3.6,11,3.2c4.6,0,8.6,3.7,8.8,8.3l0,0c0.4,4.2,3.2,7.7,7.3,8.9c1.7,0.5,3.5,0.5,5.2-0.1C49.2,48.4,49.1,48.4,49,48.4z"
		/>
	<path class="st1" d="M4.8,41c0-3.8,2.5-7.1,6.1-8.3c-4.8-1.2-9.5,1.8-10.6,6.6S2,48.7,6.8,49.8c1.5,0.4,3.2,0.2,4.8-0.2
		C7.6,48.6,4.8,45,4.8,41z"/>
</g>
<g>
	<path class="st0" d="M98.2,36.6l-3-6.6H81.6l-3,6.6h-1.5l10.6-23.3h1.5l10.6,23.3H98.2z M82.2,28.6h12.4l-6.3-13.7L82.2,28.6z"/>
	<path class="st0" d="M105,13.3h17.1v1.4h-7.9v21.9h-1.3V14.7H105C105,14.7,105,13.3,105,13.3z"/>
	<path class="st0" d="M148.8,36.6l-5.5-7.9c-0.7,0.1-1.3,0.1-2,0.1h-6.8v7.8h-1.4V13.3h8.2c2.9,0,5.1,0.7,6.7,2
		c1.6,1.4,2.5,3.5,2.4,5.7c0.1,1.7-0.4,3.5-1.5,4.9c-1.1,1.3-2.6,2.3-4.3,2.6l5.8,8.1H148.8z M141.4,27.4c2,0.1,4-0.5,5.6-1.7
		c1.4-1.2,2.1-3,2-4.8c0.1-1.8-0.6-3.5-2-4.7c-1.6-1.2-3.6-1.8-5.6-1.6h-6.9v12.8C134.5,27.4,141.4,27.4,141.4,27.4z"/>
	<path class="st0" d="M163.8,13.3h1.4v23.2h-1.4V13.3z"/>
	<path class="st0" d="M182.8,33.2c3.4,2.9,8.4,2.9,11.8,0c1.5-1.6,2.2-3.8,2.1-6V13.3h1.4v13.8c0.1,2.6-0.7,5.1-2.5,7
		c-4,3.4-9.8,3.4-13.9,0c-1.7-1.9-2.6-4.4-2.5-7V13.3h1.4v13.8C180.6,29.4,181.3,31.5,182.8,33.2z"/>
	<path class="st0" d="M212.2,13.3h1.9l9.7,18.3l9.6-18.3h1.9v23.3H234V15.2L224.1,34h-0.6l-10-18.8v21.3h-1.3L212.2,13.3z"/>
</g>
</svg>
